#!OML:ASF E:\motion texture\Top Level 1\Subject 1\Session 1\male.ASF
:FULLY-SPECIFIED
:DEGREES
390
root 14.2471 17.4618 5.74417 139.785 -77.0197 -134.506
lowerback -5.80206 3.8835 7.78521
upperback -3.54012 4.59971 3.02132
thorax -0.0620374 2.13739 -0.94429
lowerneck -18.3766 -5.17623 -6.75414
upperneck 17.2649 -6.99111 7.69057
head 8.956 -2.96153 2.79993
rclavicle 2.96872e-014 2.29596e-014
rhumerus -8.0213 24.4875 -83.8687
rradius 70.1917
rwrist -9.51317
rhand -12.031 -10.0086
rfingers 7.12502
rthumb 14.0271 -39.5153
lclavicle 2.96872e-014 2.29596e-014
lhumerus -53.5133 -9.00031 88.1818
lradius 41.0682
lwrist 1.2343
lhand -16.0593 7.19336
lfingers 7.12502
lthumb 10.1429 36.9289
rfemur 7.81875 3.48198 31.6583
rtibia 28.7484
rfoot -11.119 -3.36428
rtoes -13.811
lfemur -36.9913 9.20048 -10.9231
ltibia 41.3187
lfoot 541.956 -183.096
ltoes -1.84113
391
root 14.0577 17.4382 5.76712 140.563 -77.4486 -135.233
lowerback -5.98658 3.70297 7.45442
upperback -3.63459 4.36568 2.91039
thorax -0.0886836 2.02295 -0.886559
lowerneck -18.4322 -5.06799 -6.5754
upperneck 17.4913 -6.87993 7.56512
head 9.02313 -2.9084 2.74346
rclavicle -7.77745e-015 1.17283e-014
rhumerus -10.6479 24.419 -84.8167
rradius 69.6834
rwrist -9.16313
rhand -11.9841 -10.163
rfingers 7.12502
rthumb 14.0723 -39.6665
lclavicle -7.77745e-015 1.17283e-014
lhumerus -52.0309 -8.16006 88.8103
lradius 40.8078
lwrist 1.32986
lhand -16.4494 7.27891
lfingers 7.12502
lthumb 9.76655 37.0324
rfemur 6.78403 2.49523 30.4398
rtibia 31.156
rfoot -9.54297 -2.30452
rtoes -14.4363
lfemur -34.6689 8.6642 -11.5216
ltibia 38.9934
lfoot 539.218 -183.368
ltoes 0.0452667
392
root 13.8782 17.4212 5.79045 141.217 -78.1057 -135.917
lowerback -6.02489 3.44147 6.94517
upperback -3.69324 4.05188 2.77799
thorax -0.172512 1.87279 -0.766526
lowerneck -18.5841 -4.97356 -6.39302
upperneck 17.7259 -6.78231 7.43705
head 9.11179 -2.85885 2.68219
rclavicle 1.45858e-014 -2.98177e-014
rhumerus -13.2426 24.2347 -85.6962
rradius 69.0826
rwrist -8.79594
rhand -11.9267 -10.317
rfingers 7.12502
rthumb 14.1276 -39.8167
lclavicle 1.45858e-014 -2.98177e-014
lhumerus -50.3818 -7.42538 89.5461
lradius 40.623
lwrist 1.43506
lhand -16.7836 7.31411
lfingers 7.12502
lthumb 9.44412 37.0825
rfemur 5.49512 1.34539 29.0559
rtibia 33.9518
rfoot -7.3752 -1.36221
rtoes -14.5454
lfemur -32.7003 7.92766 -12.3543
ltibia 37.0353
lfoot 537.073 -183.403
ltoes 2.11914
393
root 13.7104 17.4119 5.8131 141.728 -79.0072 -136.55
lowerback -5.89507 3.10078 6.24338
upperback -3.70912 3.66046 2.62165
thorax -0.315433 1.68871 -0.576561
lowerneck -18.8113 -4.90417 -6.22872
upperneck 17.9388 -6.71265 7.3311
head 9.21077 -2.81923 2.62639
rclavicle -3.50358e-015 -1.07344e-014
rhumerus -15.8026 23.8928 -86.4913
rradius 68.3883
rwrist -8.3919
rhand -11.8885 -10.4689
rfingers 7.12502
rthumb 14.1644 -39.966
lclavicle -3.50358e-015 -1.07344e-014
lhumerus -48.5446 -6.8506 90.3979
lradius 40.519
lwrist 1.48342
lhand -17.0302 7.38813
lfingers 7.12502
lthumb 9.20619 37.1672
rfemur 3.97896 0.0673099 27.537
rtibia 37.0993
rfoot -4.56168 -0.633518
rtoes -13.7492
lfemur -31.0963 6.96374 -13.3969
ltibia 35.5017
lfoot 535.614 -183.273
ltoes 3.862
394
root 13.5541 17.4104 5.83425 142.032 -80.1365 -137.079
lowerback -5.60628 2.6974 5.37329
upperback -3.64699 3.20452 2.44226
thorax -0.469528 1.47883 -0.322372
lowerneck -19.1569 -4.87903 -6.11016
upperneck 18.1022 -6.69321 7.28391
head 9.32214 -2.79677 2.58938
rclavicle -1.58903e-014 -7.35503e-015
rhumerus -18.2804 23.3456 -87.1551
rradius 67.6171
rwrist -7.9573
rhand -11.8881 -10.6264
rfingers 7.12502
rthumb 14.1648 -40.1235
lclavicle -1.58903e-014 -7.35503e-015
lhumerus -46.4754 -6.50896 91.3691
lradius 40.5098
lwrist 1.41858
lhand -17.2289 7.44816
lfingers 7.12502
lthumb 9.01443 37.2356
rfemur 2.27555 -1.29683 25.9343
rtibia 40.5586
rfoot -1.15854 -0.192152
rtoes -11.7389
lfemur -29.804 5.78602 -14.5921
ltibia 34.4041
lfoot 534.724 -183.152
ltoes 5.20551
395
root 13.4087 17.4156 5.85291 142.028 -81.4178 -137.394
lowerback -5.16199 2.2551 4.40347
upperback -3.54986 2.70519 2.25531
thorax -0.67009 1.24977 -0.0214651
lowerneck -19.4117 -4.89106 -6.07828
upperneck 18.1391 -6.71737 7.32995
head 9.38351 -2.7937 2.59331
rclavicle -4.08751e-015 7.95139e-015
rhumerus -20.7717 22.5755 -87.7233
rradius 66.7624
rwrist -7.46596
rhand -11.9343 -10.7598
rfingers 7.12502
rthumb 14.1204 -40.26
lclavicle -4.08751e-015 7.95139e-015
lhumerus -44.306 -6.40899 92.442
lradius 40.646
lwrist 1.20722
lhand -17.3599 7.47042
lfingers 7.12502
lthumb 8.88808 37.2632
rfemur 0.408458 -2.67435 24.3407
rtibia 44.3028
rfoot 2.54121 -0.0360389
rtoes -8.70907
lfemur -28.7462 4.4994 -15.8456
ltibia 33.7101
lfoot 534.161 -183.105
ltoes 6.06557
396
root 13.2719 17.4253 5.8686 141.522 -82.7571 -137.289
lowerback -4.61281 1.81887 3.41238
upperback -3.37954 2.20827 2.06999
thorax -0.843095 1.02446 0.300107
lowerneck -19.6507 -4.95393 -6.12673
upperneck 18.0427 -6.80066 7.47359
head 9.40699 -2.81424 2.63523
rclavicle -3.27995e-015 2.38542e-014
rhumerus -23.1954 21.5529 -88.134
rradius 65.8326
rwrist -6.94721
rhand -12.0565 -10.869
rfingers 7.12502
rthumb 14.0025 -40.3774
lclavicle -3.27995e-015 2.38542e-014
lhumerus -41.993 -6.61091 93.5939
lradius 40.9544
lwrist 0.896047
lhand -17.4144 7.4984
lfingers 7.12502
lthumb 8.83548 37.2934
rfemur -1.59605 -4.00102 22.8518
rtibia 48.3006
rfoot 6.10721 -0.0268826
rtoes -5.08194
lfemur -27.8313 3.23729 -17.0643
ltibia 33.3676
lfoot 533.78 -183.205
ltoes 6.48045
